<svg width="14" height="21" viewBox="0 0 14 21" fill="none" xmlns="http://www.w3.org/2000/svg">
<path d="M13.0001 17.2793H9.42969" stroke="#FDB726" stroke-width="1.8" stroke-linecap="round" stroke-linejoin="round"/>
<path d="M11.2148 19.0646V15.4941" stroke="#FDB726" stroke-width="1.8" stroke-linecap="round" stroke-linejoin="round"/>
<path d="M7.34089 9.57612C7.25163 9.56719 7.14452 9.56719 7.04633 9.57612C4.92192 9.50471 3.2349 7.76413 3.2349 5.62187C3.22597 3.43498 5.00226 1.65869 7.18915 1.65869C9.37604 1.65869 11.1523 3.43498 11.1523 5.62187C11.1523 7.76413 9.45637 9.50471 7.34089 9.57612Z" stroke="#FDB726" stroke-width="1.8" stroke-linecap="round" stroke-linejoin="round"/>
<path d="M7.18921 19.3414C5.56467 19.3414 3.94905 18.9308 2.71725 18.1096C0.557141 16.6636 0.557141 14.3071 2.71725 12.87C5.17192 11.2276 9.19758 11.2276 11.6522 12.87" stroke="#FDB726" stroke-width="1.8" stroke-linecap="round" stroke-linejoin="round"/>
</svg>
