<svg width="19" height="22" viewBox="0 0 19 22" fill="none" xmlns="http://www.w3.org/2000/svg">
<path fill-rule="evenodd" clip-rule="evenodd" d="M10.1772 1.80949C10.9761 0.831868 12.3469 0.0811244 13.5198 0C13.7164 1.33649 13.1733 2.64548 12.4556 3.57085C11.6883 4.56496 10.3642 5.33358 9.08271 5.29371C8.84896 4.01359 9.44845 2.69635 10.1772 1.80949ZM13.9515 5.14938C15.4461 5.14938 17.0287 5.96887 18.1548 7.38099C14.463 9.41734 15.0611 14.7221 18.7915 16.1424C18.2786 17.2864 18.0325 17.7965 17.3711 18.8099C16.4485 20.2234 15.1491 21.9847 13.5363 21.9971C12.8733 22.0041 12.4383 21.8035 11.9693 21.5871C11.4258 21.3363 10.8365 21.0645 9.79353 21.0704C8.7563 21.0755 8.1576 21.344 7.60661 21.5911C7.12552 21.8068 6.6808 22.0063 6.01231 21.9999C4.40082 21.9861 3.16883 20.3966 2.24622 18.9831C-0.331888 15.0328 -0.604136 10.395 0.986727 7.92823C2.11834 6.17649 3.90308 5.15213 5.57919 5.15213C6.47251 5.15213 7.19247 5.41027 7.87857 5.65627C8.50302 5.88016 9.09941 6.094 9.77291 6.094C10.3961 6.094 10.9085 5.89878 11.4674 5.68583C12.1379 5.43036 12.8754 5.14938 13.9515 5.14938Z" fill="black"/>
</svg>
