<svg width="16" height="16" viewBox="0 0 16 16" fill="none" xmlns="http://www.w3.org/2000/svg">
<circle cx="8" cy="8" r="8" fill="white"/>
<path fill-rule="evenodd" clip-rule="evenodd" d="M8.7642 4.59845C8.71835 4.26049 8.42865 4 8.07811 4C7.6957 4 7.3857 4.31 7.3857 4.69241V7.38179H4.69242L4.59846 7.38811C4.26049 7.43396 4 7.72366 4 8.07421C4 8.45662 4.31001 8.76663 4.69242 8.76663H7.3857V11.4562L7.39202 11.5502C7.43787 11.8881 7.72757 12.1486 8.07811 12.1486C8.46052 12.1486 8.77052 11.8386 8.77052 11.4562V8.76663H11.4627L11.5567 8.76031C11.8946 8.71446 12.1551 8.42475 12.1551 8.07421C12.1551 7.69179 11.8451 7.38179 11.4627 7.38179H8.77052V4.69241L8.7642 4.59845Z" fill="#1F1F39"/>
</svg>
