<svg width="11" height="11" viewBox="0 0 11 11" fill="none" xmlns="http://www.w3.org/2000/svg">
<path d="M2.09006 0.256961L2.23702 0.38383L5.49913 3.6464L8.76046 0.387402C9.27219 -0.124243 10.1019 -0.124243 10.6136 0.387402C11.0788 0.852533 11.1211 1.58039 10.7405 2.09329L10.6136 2.24023L7.35284 5.49983L10.6163 8.76353C11.128 9.27523 11.1279 10.1048 10.6161 10.6164C10.1509 11.0814 9.42288 11.1237 8.90994 10.743L8.76299 10.6162L5.50087 7.3515L2.24129 10.6112C1.72956 11.1228 0.899888 11.1228 0.388162 10.6112C-0.0770433 10.1461 -0.119334 9.41821 0.261288 8.90532L0.388162 8.75837L3.64716 5.49808L0.383698 2.23646C-0.127974 1.72477 -0.127889 0.895228 0.383891 0.383637C0.849144 -0.081446 1.57712 -0.123655 2.09006 0.256961Z" fill="black"/>
</svg>
