<svg width="32" height="32" viewBox="0 0 32 32" fill="none" xmlns="http://www.w3.org/2000/svg">
<path d="M16.0001 25.3333C10.8454 25.3333 6.66675 21.1546 6.66675 16C6.66675 10.8453 10.8454 6.66663 16.0001 6.66663C21.1547 6.66663 25.3334 10.8453 25.3334 16C25.3275 21.1522 21.1523 25.3274 16.0001 25.3333ZM16.0001 9.33329C12.3182 9.33329 9.33341 12.3181 9.33341 16C9.33341 19.6819 12.3182 22.6666 16.0001 22.6666C19.682 22.6666 22.6667 19.6819 22.6667 16C22.6667 12.3181 19.682 9.33329 16.0001 9.33329ZM16.0001 20C13.7909 20 12.0001 18.2091 12.0001 16C12.0001 13.7908 13.7909 12 16.0001 12C18.2092 12 20.0001 13.7908 20.0001 16C20.0001 17.0608 19.5787 18.0782 18.8285 18.8284C18.0784 19.5785 17.0609 20 16.0001 20Z" fill="#FDB726"/>
</svg>
