<svg width="33" height="32" viewBox="0 0 33 32" fill="none" xmlns="http://www.w3.org/2000/svg">
<path d="M16.5 10.6665C13.519 10.6665 11 13.1092 11 15.9998C11 18.8905 13.519 21.3332 16.5 21.3332C19.481 21.3332 22 18.8905 22 15.9998C22 13.1092 19.481 10.6665 16.5 10.6665ZM16.5 18.6665C15.0356 18.6665 13.75 17.4198 13.75 15.9998C13.75 14.5798 15.0356 13.3332 16.5 13.3332C17.9644 13.3332 19.25 14.5798 19.25 15.9998C19.25 17.4198 17.9644 18.6665 16.5 18.6665Z" fill="#4F4F4F"/>
<path d="M27.5 6.6665H23.9443L20.2221 3.05717C20.0947 2.93312 19.9431 2.83473 19.7763 2.76768C19.6095 2.70064 19.4306 2.66625 19.25 2.66651H13.75C13.5694 2.66625 13.3905 2.70064 13.2237 2.76768C13.0569 2.83473 12.9053 2.93312 12.7779 3.05717L9.05575 6.6665H5.5C3.98337 6.6665 2.75 7.8625 2.75 9.33317V23.9998C2.75 25.4705 3.98337 26.6665 5.5 26.6665H27.5C29.0166 26.6665 30.25 25.4705 30.25 23.9998V9.33317C30.25 7.8625 29.0166 6.6665 27.5 6.6665ZM5.5 23.9998V9.33317H9.625C9.99075 9.33317 10.34 9.19317 10.5971 8.9425L14.3192 5.33317H18.6808L22.4029 8.9425C22.5303 9.06656 22.6819 9.16495 22.8487 9.23199C23.0155 9.29904 23.1944 9.33343 23.375 9.33317H27.5L27.5028 23.9998H5.5Z" fill="#4F4F4F"/>
</svg>
