<svg width="16" height="15" viewBox="0 0 16 15" fill="none" xmlns="http://www.w3.org/2000/svg">
<path fill-rule="evenodd" clip-rule="evenodd" d="M12.3594 1.92407C12.0021 1.30527 11.3419 0.924072 10.6273 0.924072H5.23385C4.51932 0.924072 3.85906 1.30527 3.5018 1.92407L0.805059 6.59496C0.447793 7.21376 0.447793 7.97615 0.805058 8.59496L3.5018 13.2658C3.85906 13.8846 4.51931 14.2658 5.23385 14.2658H10.6273C11.3419 14.2658 12.0021 13.8846 12.3594 13.2658L15.0561 8.59496C15.4134 7.97616 15.4134 7.21376 15.0561 6.59496L12.3594 1.92407ZM6.54982 10.0784L4.58913 8.03753C4.40142 7.84214 4.40349 7.53278 4.59382 7.33992L5.06073 6.86681C5.25836 6.66655 5.58225 6.66873 5.77718 6.87163L7.27519 8.43095L10.4692 5.17341C10.6663 4.97236 10.9905 4.97367 11.1861 5.17631L11.6479 5.65503C11.8359 5.84986 11.8347 6.1589 11.6451 6.35222L7.98504 10.0857C7.59019 10.4884 6.94057 10.4851 6.54982 10.0784Z" fill="white"/>
</svg>
