<svg width="24" height="24" viewBox="0 0 24 24" fill="none" xmlns="http://www.w3.org/2000/svg">
<path d="M12 16C12.5523 16 13 15.5523 13 15C13 14.4477 12.5523 14 12 14C11.4477 14 11 14.4477 11 15C11 15.5523 11.4477 16 12 16Z" fill="black"/>
<path fill-rule="evenodd" clip-rule="evenodd" d="M7 6H4C2.89543 6 2 6.89543 2 8V18C2 19.1046 2.89543 20 4 20H20C21.1046 20 22 19.1046 22 18V8C22 6.89543 21.1046 6 20 6H17C17 4.34315 15.6569 3 14 3H10C8.34315 3 7 4.34315 7 6ZM9 6C9 5.44772 9.44772 5 10 5H14C14.5523 5 15 5.44772 15 6H9ZM4 18V10.6617L4.00671 10.6692C5.3573 12.1699 7.7751 13.5002 12 13.5002C16.2207 13.5002 18.5447 12.1702 19.7809 10.6249C19.8588 10.5275 19.9317 10.4301 20 10.3329V18H4ZM5.4933 9.33127C5.05607 8.84546 4.8066 8.36453 4.66565 8H18.915L18.9088 8.02382C18.8121 8.38651 18.6163 8.87913 18.2191 9.37554C17.4554 10.3303 15.7793 11.5002 12 11.5002C8.22491 11.5002 6.39271 10.3306 5.4933 9.33127Z" fill="black"/>
</svg>
