<svg width="14" height="14" viewBox="0 0 14 14" fill="none" xmlns="http://www.w3.org/2000/svg">
<path d="M6.99325 13.6673C3.31222 13.6636 0.330802 10.6772 0.333253 6.99621C0.335708 3.31518 3.32111 0.332759 7.00214 0.333985C10.6832 0.335211 13.6666 3.31962 13.6666 7.00065C13.6644 10.6842 10.6768 13.6688 6.99325 13.6673ZM1.66659 7.11531C1.69813 10.0495 4.09399 12.407 7.02828 12.3913C9.96257 12.3755 12.3329 9.99231 12.3329 7.05798C12.3329 4.12365 9.96257 1.7405 7.02828 1.72465C4.09399 1.70895 1.69813 4.06649 1.66659 7.00065V7.11531ZM7.66659 10.334H6.33325V9.00065H7.66659V10.334ZM7.66659 7.66731H6.33325V3.66731H7.66659V7.66731Z" fill="#EB5757"/>
</svg>
