<svg width="20" height="20" viewBox="0 0 20 20" fill="none" xmlns="http://www.w3.org/2000/svg">
<path d="M15.8333 18.3334H4.16667C3.24619 18.3334 2.5 17.5872 2.5 16.6667V5.00008C2.5 4.07961 3.24619 3.33341 4.16667 3.33341H5.83333V1.66675H7.5V3.33341H12.5V1.66675H14.1667V3.33341H15.8333C16.7538 3.33341 17.5 4.07961 17.5 5.00008V16.6667C17.5 17.5872 16.7538 18.3334 15.8333 18.3334ZM4.16667 8.33342V16.6667H15.8333V8.33342H4.16667ZM4.16667 5.00008V6.66675H15.8333V5.00008H4.16667ZM14.1667 15.0001H12.5V13.3334H14.1667V15.0001ZM10.8333 15.0001H9.16667V13.3334H10.8333V15.0001ZM7.5 15.0001H5.83333V13.3334H7.5V15.0001ZM14.1667 11.6667H12.5V10.0001H14.1667V11.6667ZM10.8333 11.6667H9.16667V10.0001H10.8333V11.6667ZM7.5 11.6667H5.83333V10.0001H7.5V11.6667Z" fill="black"/>
</svg>
