<svg width="24" height="24" viewBox="0 0 24 24" fill="none" xmlns="http://www.w3.org/2000/svg">
<path d="M15.3594 5.12192C15.3594 5.68644 14.9399 6.15298 14.3956 6.22682L14.2443 6.237L4.04483 6.23699C3.42899 6.23699 2.92975 5.73776 2.92975 5.12192C2.92975 4.55739 3.34925 4.09085 3.89352 4.01701L4.04483 4.00684L14.2443 4.00684C14.8601 4.00684 15.3594 4.50607 15.3594 5.12192Z" fill="#200E32"/>
<path d="M20.2397 12.0604C20.2397 12.6249 19.8202 13.0915 19.276 13.1653L19.1247 13.1755L4.04474 13.1755C3.4289 13.1755 2.92966 12.6762 2.92966 12.0604C2.92966 11.4959 3.34916 11.0293 3.89343 10.9555L4.04474 10.9453L19.1247 10.9453C19.7405 10.9453 20.2397 11.4446 20.2397 12.0604Z" fill="#200E32"/>
<path d="M9.96948 18.8851C9.96948 19.4496 9.54998 19.9162 9.00571 19.99L8.8544 20.0002L4.04467 20.0002C3.42883 20.0002 2.92959 19.5009 2.92959 18.8851C2.92959 18.3206 3.34909 17.854 3.89336 17.7802L4.04467 17.77L8.8544 17.77C9.47024 17.77 9.96948 18.2693 9.96948 18.8851Z" fill="#200E32"/>
</svg>
