<svg width="12" height="20" viewBox="0 0 12 20" fill="none" xmlns="http://www.w3.org/2000/svg">
<path d="M5.45898 19.5361H6.61914V17.7744C9.49805 17.5811 11.6787 16.0342 11.6787 13.3594C11.6787 11.0391 10.1426 9.87891 7.27441 9.21289L6.61914 9.0625V4.88379C7.94043 5.04492 8.84277 5.78613 8.99316 7.06445H11.4961C11.3994 4.57227 9.44434 2.92871 6.61914 2.72461V0.941406H5.45898V2.72461C2.63379 2.90723 0.603516 4.5293 0.603516 7.01074C0.603516 9.25586 2.10742 10.502 4.86816 11.1357L5.45898 11.2754V15.626C3.81543 15.4648 3.02051 14.6055 2.82715 13.4131H0.324219C0.399414 16.0342 2.59082 17.6025 5.45898 17.7744V19.5361ZM3.19238 6.7959C3.19238 5.85059 3.97656 5.04492 5.45898 4.87305V8.79395C3.83691 8.375 3.19238 7.73047 3.19238 6.7959ZM9.10059 13.6279C9.10059 14.7021 8.32715 15.4971 6.61914 15.626V11.5439C8.49902 12.0059 9.10059 12.5859 9.10059 13.6279Z" fill="#828282"/>
</svg>
