<svg width="101" height="101" viewBox="0 0 101 101" fill="none" xmlns="http://www.w3.org/2000/svg">
<path d="M50.5 100.5C78.1142 100.5 100.5 78.1142 100.5 50.5C100.5 22.8858 78.1142 0.5 50.5 0.5C22.8858 0.5 0.5 22.8858 0.5 50.5C0.5 78.1142 22.8858 100.5 50.5 100.5Z" fill="#F2F2F2"/>
<path d="M49.6667 64.6669H41.8894C40.3554 64.6654 39.1122 63.4222 39.1107 61.8882V48.9549C38.0217 48.1821 37.6826 46.7169 38.3214 45.5442C39.5214 43.4002 40.7454 41.2869 41.9494 39.2615C42.4323 38.4709 43.295 37.9919 44.2214 38.0001C44.7861 38.0058 45.3354 38.1851 45.7947 38.5135L45.8267 38.5335C46.3761 38.8535 51.6827 42.0122 55.9481 44.5495L59.7334 46.8002L59.9067 46.9029C62.8641 48.6509 63.5294 49.0482 63.5667 49.0735C64.6554 49.8443 64.9902 51.3106 64.3441 52.4775C63.1667 54.5802 61.9441 56.6935 60.7161 58.7602C60.2394 59.5423 59.392 60.0221 58.4761 60.0282C58.2966 60.0283 58.1177 60.0082 57.9427 59.9682C57.7881 60.0602 56.9347 60.6082 55.8534 61.3015C53.9294 62.5349 51.3001 64.2215 50.9961 64.3775C50.5859 64.5886 50.1275 64.6884 49.6667 64.6669ZM41.3334 52.7069V61.8882C41.3334 62.1953 41.5823 62.4442 41.8894 62.4442H46.9867C45.0494 59.1735 43.1481 55.8962 41.3334 52.7069ZM43.1441 51.3735C43.6774 52.2895 49.4321 62.2162 49.4801 62.2829C49.5559 62.3813 49.6731 62.439 49.7974 62.4389C49.8629 62.4389 49.9275 62.4229 49.9854 62.3922C50.1654 62.2909 55.5774 58.8135 55.6307 58.7789C55.2121 58.5322 52.1827 56.7269 48.9747 54.8162L43.1174 51.3335L43.1267 51.3482L43.1401 51.3709V51.3789L43.1441 51.3735ZM43.7761 40.5335C42.6987 42.2669 40.2881 46.5709 40.2561 46.6495C40.177 46.8384 40.2471 47.0567 40.4214 47.1642C40.5987 47.2695 58.2267 57.7722 58.3947 57.7989C58.416 57.8004 58.4374 57.8004 58.4587 57.7989C58.6036 57.7994 58.7382 57.724 58.8134 57.6002C59.8987 55.7775 62.3987 51.3909 62.4054 51.3775C62.4826 51.1879 62.4123 50.9702 62.2387 50.8615C62.0694 50.7602 44.4747 40.3042 44.3614 40.2549C44.3099 40.2332 44.2546 40.2219 44.1987 40.2215C44.0583 40.2223 43.9276 40.2934 43.8507 40.4109L43.8414 40.4269L43.8307 40.4429L43.8147 40.4695V40.4762L43.7947 40.5082L43.7747 40.5335H43.7761ZM45.5801 47.8535C44.3541 47.8528 43.3606 46.859 43.3601 45.6331C43.3596 44.4072 44.3524 43.4126 45.5783 43.4109C46.8042 43.4092 47.7998 44.4009 47.8027 45.6269C47.8013 46.8538 46.807 47.8481 45.5801 47.8495V47.8535Z" fill="#A5A5B0"/>
</svg>
