<svg width="25" height="24" viewBox="0 0 25 24" fill="none" xmlns="http://www.w3.org/2000/svg">
<ellipse cx="12.5185" cy="12" rx="12.4816" ry="12" fill="#3C3C5A"/>
<path d="M12.5185 16C15.0148 16 16.9564 13.9333 17.7885 12.7333C18.1352 12.2667 18.1352 11.6667 17.7885 11.2C16.9564 10.0667 15.0148 8 12.5185 8C10.0222 8 8.08061 10.0667 7.24851 11.2667C6.90179 11.7333 6.90179 12.3333 7.24851 12.7333C8.08061 13.9333 10.0222 16 12.5185 16ZM12.5185 10C13.6973 10 14.5988 10.8667 14.5988 12C14.5988 13.1333 13.6973 14 12.5185 14C11.3397 14 10.4382 13.1333 10.4382 12C10.4382 10.8667 11.3397 10 12.5185 10Z" fill="white"/>
</svg>
