<svg width="16" height="16" viewBox="0 0 16 16" fill="none" xmlns="http://www.w3.org/2000/svg">
<circle cx="8" cy="8" r="8" fill="#828282"/>
<g clip-path="url(#clip0_1604_10784)">
<path d="M12.4 6.3999L6.93335 11.8666C7.26668 11.9332 7.66668 11.9999 8.00002 11.9999C10.4 11.9999 12.2667 9.93324 13.0667 8.73324C13.4 8.26657 13.4 7.66657 13.0667 7.1999C12.9333 6.9999 12.6667 6.73324 12.4 6.3999Z" fill="white"/>
<path d="M12.2 2.8665L10.4 4.6665C9.66663 4.2665 8.86663 3.99984 7.99996 3.99984C5.59996 3.99984 3.73329 6.0665 2.93329 7.2665C2.59996 7.73317 2.59996 8.33317 2.93329 8.73317C3.26663 9.2665 3.86663 9.93317 4.53329 10.5332L2.86663 12.1998C2.59996 12.4665 2.59996 12.8665 2.86663 13.1332C2.99996 13.2665 3.13329 13.3332 3.33329 13.3332C3.53329 13.3332 3.66663 13.2665 3.79996 13.1332L13.1333 3.79984C13.4 3.53317 13.4 3.13317 13.1333 2.8665C12.8666 2.59984 12.4666 2.59984 12.2 2.8665ZM6.19996 8.8665C6.06663 8.59984 5.99996 8.33317 5.99996 7.99984C5.99996 6.8665 6.86663 5.99984 7.99996 5.99984C8.33329 5.99984 8.59996 6.0665 8.86663 6.19984L6.19996 8.8665Z" fill="white"/>
</g>
<defs>
<clipPath id="clip0_1604_10784">
<rect width="10.6667" height="10.6667" fill="white" transform="translate(2.66663 2.6665)"/>
</clipPath>
</defs>
</svg>
