<svg width="34" height="32" viewBox="0 0 34 32" fill="none" xmlns="http://www.w3.org/2000/svg">
<path d="M26.9167 28H7.08333C5.51853 28 4.25 26.8061 4.25 25.3333V6.66667C4.25 5.19391 5.51853 4 7.08333 4H26.9167C28.4815 4 29.75 5.19391 29.75 6.66667V25.3333C29.75 26.8061 28.4815 28 26.9167 28ZM7.08333 6.66667V25.3333H26.9167V6.66667H7.08333ZM25.5 22.6667H8.5L12.75 17.3333L14.1667 18.6667L18.4167 13.3333L25.5 22.6667ZM12.0417 14.6667C10.8681 14.6667 9.91667 13.7712 9.91667 12.6667C9.91667 11.5621 10.8681 10.6667 12.0417 10.6667C13.2153 10.6667 14.1667 11.5621 14.1667 12.6667C14.1667 13.7712 13.2153 14.6667 12.0417 14.6667Z" fill="#4F4F4F"/>
</svg>
