<svg width="33" height="20" viewBox="0 0 33 20" fill="none" xmlns="http://www.w3.org/2000/svg">
<path d="M2.42773 19.3193L7.92773 0.499023H5.5L0 19.3193H2.42773ZM13.5029 16H16.1777V9.45801C16.1777 7.78223 17.1553 6.66504 18.7666 6.66504C20.3135 6.66504 21.1084 7.62109 21.1084 9.21094V16H23.7832V8.66309C23.7832 6.05273 22.3115 4.39844 19.7979 4.39844C18.0684 4.39844 16.8115 5.18262 16.1992 6.56836H16.1455V0.499023H13.5029V16ZM25.9316 16H28.6064V9.37207C28.6064 7.77148 29.5195 6.79395 31.0342 6.79395C31.4854 6.79395 31.8936 6.8584 32.1191 6.94434V4.52734C31.9258 4.48438 31.625 4.41992 31.2812 4.41992C29.9385 4.41992 28.9395 5.21484 28.5527 6.60059H28.499V4.61328H25.9316V16Z" fill="#828282"/>
</svg>
