<svg width="16" height="17" viewBox="0 0 16 17" fill="none" xmlns="http://www.w3.org/2000/svg">
<path fill-rule="evenodd" clip-rule="evenodd" d="M1.64861e-06 8.13214C-0.00267315 12.1478 3.24979 15.4057 7.26546 15.4097C8.12392 15.4101 8.94773 15.2617 9.71253 14.9891C10.3759 15.6954 11.3182 16.1365 12.3636 16.1365C14.372 16.1365 16 14.5084 16 12.5001C16 11.2539 15.3731 10.1541 14.4174 9.49886C14.5012 9.05772 14.5452 8.60247 14.5455 8.13699C14.5455 4.12131 11.2908 0.865596 7.27515 0.864258C3.25948 0.862921 0.00267974 4.11647 1.64861e-06 8.13214ZM13.0455 8.92759C13.0752 8.68907 13.0906 8.44608 13.0906 8.19953C13.0906 4.99844 10.5047 2.39864 7.30367 2.38134C4.10263 2.36422 1.48896 4.93608 1.45455 8.13698V8.26207C1.48896 11.463 4.10263 14.0348 7.30367 14.0177C7.87782 14.0146 8.43218 13.9284 8.95538 13.7706C8.80789 13.3751 8.72728 12.947 8.72728 12.5001C8.72728 10.4918 10.3553 8.86377 12.3636 8.86377C12.5967 8.86377 12.8246 8.8857 13.0455 8.92759ZM6.54546 11.7733H8V10.3188H6.54546V11.7733ZM6.54546 8.86426H8V4.50062H6.54546V8.86426ZM10.1818 12.9838L10.8243 12.3413L11.7106 13.2276L13.8926 11.0456L14.5351 11.6881L11.883 14.3403L11.8822 14.3395L11.7099 14.5119L10.1818 12.9838Z" fill="#EB5757"/>
</svg>
