<svg width="24" height="24" viewBox="0 0 24 24" fill="none" xmlns="http://www.w3.org/2000/svg">
<path d="M12 22C10.5565 20.8032 9.21847 19.4911 7.99998 18.0775C6.17142 15.9546 4 12.793 4 9.7803C3.99838 6.63378 5.9477 3.79641 8.93834 2.59222C11.929 1.38803 15.3714 2.05438 17.6594 4.28032C19.1639 5.73625 20.0067 7.71671 20 9.7803C20 12.793 17.8285 15.9546 15.9999 18.0775C14.7814 19.4911 13.4435 20.8032 12 22ZM12 4.22589C8.84563 4.22956 6.28948 6.7142 6.2857 9.7803C6.2857 11.0756 6.88799 13.3185 9.75426 16.6522C10.4607 17.4721 11.2103 18.256 12 19.0006C12.7897 18.2568 13.5397 17.4741 14.2468 16.6555C17.1119 13.3173 17.7142 11.0745 17.7142 9.7803C17.7104 6.7142 15.1543 4.22956 12 4.22589ZM12 13.1129C10.1064 13.1129 8.57141 11.6209 8.57141 9.7803C8.57141 7.93973 10.1064 6.44765 12 6.44765C13.8935 6.44765 15.4285 7.93973 15.4285 9.7803C15.4285 10.6642 15.0673 11.5118 14.4243 12.1368C13.7813 12.7618 12.9093 13.1129 12 13.1129Z" fill="#797988"/>
</svg>
