<svg width="24" height="24" viewBox="0 0 24 24" fill="none" xmlns="http://www.w3.org/2000/svg">
<path d="M13 14C13 13.4477 12.5523 13 12 13C11.4477 13 11 13.4477 11 14V17C11 17.5523 11.4477 18 12 18C12.5523 18 13 17.5523 13 17V14Z" fill="black"/>
<path fill-rule="evenodd" clip-rule="evenodd" d="M6 8V9C4.89543 9 4 9.89543 4 11V20C4 21.1046 4.89543 22 6 22H18C19.1046 22 20 21.1046 20 20V11C20 9.89543 19.1046 9 18 9V8C18 4.68629 15.3137 2 12 2C8.68629 2 6 4.68629 6 8ZM12 4C9.79086 4 8 5.79086 8 8V9H16V8C16 5.79086 14.2091 4 12 4ZM6 11L6 20H18V11H6Z" fill="black"/>
</svg>
