<svg width="20" height="21" viewBox="0 0 20 21" fill="none" xmlns="http://www.w3.org/2000/svg">
<path d="M16.5977 18.3992H3.44314C2.53501 18.3992 1.79883 17.663 1.79883 16.7549V7.75145C1.82658 7.19967 2.12545 6.69733 2.59714 6.40969L9.1744 2.46333C9.69493 2.15122 10.3451 2.15122 10.8656 2.46333L17.4428 6.40969C17.9371 6.70794 18.24 7.24241 18.242 7.81969V16.7549C18.242 17.663 17.5058 18.3992 16.5977 18.3992ZM3.44314 8.4248V16.7549H16.5977V8.4248L10.0204 12.8094L3.44314 8.4248ZM10.0204 3.87333L4.5251 7.17018L10.0204 10.8337L15.5149 7.17018L10.0204 3.87333Z" fill="#FDB726"/>
</svg>
