<svg width="24" height="24" viewBox="0 0 24 24" fill="none" xmlns="http://www.w3.org/2000/svg">
<path fill-rule="evenodd" clip-rule="evenodd" d="M12.9996 2H10V4.18C7.421 4.793 6 7.038 6 10.5V16L4 17V19H20V17L18 16V10.507C18 10.319 17.996 10.118 17.985 9.907C17.9783 9.907 17.9716 9.90699 17.9649 9.90698C17.6527 9.96802 17.3301 10 17 10C14.2386 10 12 7.76142 12 5C11.9969 3.96468 12.3181 2.95562 12.9167 2.11376C12.9438 2.07544 12.9715 2.03751 12.9996 2ZM20 5C20 6.65685 18.6569 8 17 8C16.8339 8 16.6709 7.9865 16.5122 7.96053C16.1181 7.89586 15.7397 7.75268 15.3999 7.53811C15.0055 7.28894 14.6732 6.95036 14.4314 6.55086C14.1979 6.16357 14.055 5.72827 14.0128 5.27939C14.0043 5.1874 14 5.09421 14 5C14 4.87396 14.0078 4.74974 14.0229 4.62779C14.0565 4.35943 14.127 4.0921 14.2365 3.8329C14.3412 3.58494 14.4762 3.35737 14.6356 3.15323C14.731 3.03135 14.8355 2.91703 14.9482 2.81132C15.6395 2.16392 16.6189 1.8623 17.5954 2.06004C18.9942 2.34329 19.9998 3.5728 20 5ZM10 20C10 21.1046 10.8954 22 12 22C13.1046 22 14 21.1046 14 20H10Z" fill="#FDB726"/>
<path d="M20 5C20 6.65685 18.6569 8 17 8C15.3431 8 14 6.65685 14 5C14 3.34315 15.3431 2 17 2C18.6569 2 20 3.34315 20 5Z" fill="#CF6316"/>
</svg>
