<svg width="20" height="20" viewBox="0 0 20 20" fill="none" xmlns="http://www.w3.org/2000/svg">
<path d="M15.0001 16.6667H2.50008C2.27891 16.669 2.06621 16.5817 1.91036 16.4247C1.7545 16.2678 1.66874 16.0545 1.67258 15.8333H1.66675V4.16667C1.66675 3.24619 2.41294 2.5 3.33341 2.5H8.33342C8.51955 2.50018 8.70026 2.56266 8.84675 2.6775L10.7501 4.16667H15.0001C15.9206 4.16667 16.6667 4.91286 16.6667 5.83333V9.16667H17.5001C17.7802 9.1667 18.0416 9.30746 18.1957 9.54133C18.3499 9.77519 18.3763 10.0709 18.2659 10.3283L15.7659 16.1617C15.6346 16.468 15.3334 16.6667 15.0001 16.6667ZM5.55008 10.8333L3.76425 15H14.4509L16.2367 10.8333H5.55008ZM3.33341 5.83333V11.775L4.23425 9.67167C4.36557 9.36533 4.66678 9.1667 5.00008 9.16667H15.0001V5.83333H3.33341Z" fill="#333333"/>
</svg>
