<svg width="19" height="22" viewBox="0 0 19 22" fill="none" xmlns="http://www.w3.org/2000/svg">
<path d="M15.8125 1.65C14.85 0.549999 13.0625 0 10.5875 0H3.7125C3.3 0 2.8875 0.412498 2.75 0.824999L0 18.8375C0 19.25 0.275 19.525 0.550001 19.525H4.8125L5.91251 12.7875V13.0625C6.05001 12.65 6.46251 12.2375 6.87501 12.2375H8.93751C12.925 12.2375 15.95 10.5875 16.9125 6.05C16.9125 5.9125 16.9125 5.775 16.9125 5.6375C16.775 5.6375 16.775 5.6375 16.9125 5.6375C17.05 3.85 16.775 2.75 15.8125 1.65Z" fill="#263B80"/>
<path d="M16.7749 5.6377C16.7749 5.7752 16.7749 5.9127 16.7749 6.0502C15.8124 10.7252 12.7874 12.2377 8.79991 12.2377H6.7374C6.3249 12.2377 5.9124 12.6502 5.7749 13.0627L4.3999 21.4502C4.3999 21.7252 4.5374 22.0002 4.9499 22.0002H8.52491C8.93741 22.0002 9.34991 21.7252 9.34991 21.3127V21.1752L10.0374 16.9127V16.6377C10.0374 16.2252 10.4499 15.9502 10.8624 15.9502H11.4124C14.8499 15.9502 17.5999 14.5752 18.2874 10.4502C18.5624 8.8002 18.4249 7.2877 17.5999 6.3252C17.4624 6.0502 17.1874 5.7752 16.7749 5.6377Z" fill="#139AD6"/>
<path d="M15.8126 5.225C15.6751 5.225 15.5376 5.0875 15.4001 5.0875C15.2626 5.0875 15.1251 5.0875 14.9876 4.95C14.4376 4.8125 13.8876 4.8125 13.2001 4.8125H7.8376C7.7001 4.8125 7.5626 4.8125 7.4251 4.95C7.1501 5.0875 7.0126 5.3625 7.0126 5.6375L5.9126 12.7875V13.0625C6.0501 12.65 6.4626 12.2375 6.8751 12.2375H8.9376C12.9251 12.2375 15.9501 10.5875 16.9126 6.05C16.9126 5.9125 16.9126 5.775 17.0501 5.6375C16.7751 5.5 16.6376 5.3625 16.3626 5.3625C15.9501 5.225 15.9501 5.225 15.8126 5.225Z" fill="#232C65"/>
</svg>
