<svg width="100" height="100" viewBox="0 0 100 100" fill="none" xmlns="http://www.w3.org/2000/svg">
<circle cx="50" cy="50" r="50" fill="#F2F2F2"/>
<path d="M40 42C40 36.4772 44.4772 32 50 32C55.5228 32 60 36.4772 60 42C60 47.5228 55.5228 52 50 52C44.4772 52 40 47.5228 40 42ZM50 48C53.3137 48 56 45.3137 56 42C56 38.6863 53.3137 36 50 36C46.6863 36 44 38.6863 44 42C44 45.3137 46.6863 48 50 48Z" fill="#E0E0E0"/>
<path d="M38.6863 58.6863C35.6857 61.6869 34 65.7565 34 70H38C38 66.8174 39.2643 63.7652 41.5147 61.5147C43.7652 59.2643 46.8174 58 50 58C53.1826 58 56.2348 59.2643 58.4853 61.5147C60.7357 63.7652 62 66.8174 62 70H66C66 65.7565 64.3143 61.6869 61.3137 58.6863C58.3131 55.6857 54.2435 54 50 54C45.7565 54 41.6869 55.6857 38.6863 58.6863Z" fill="#E0E0E0"/>
</svg>
