<svg width="20" height="20" viewBox="0 0 20 20" fill="none" xmlns="http://www.w3.org/2000/svg">
<path d="M11.5167 18.3334H8.48335C8.09178 18.3334 7.75298 18.0609 7.66918 17.6784L7.33001 16.1084C6.87756 15.9102 6.44853 15.6623 6.05085 15.3692L4.52001 15.8567C4.14668 15.9758 3.74084 15.8187 3.54501 15.4792L2.02501 12.8534C1.83134 12.5138 1.89806 12.0855 2.18585 11.8209L3.37335 10.7376C3.31934 10.2468 3.31934 9.75166 3.37335 9.26091L2.18585 8.18008C1.89764 7.91539 1.83089 7.48652 2.02501 7.14675L3.54168 4.51925C3.7375 4.17983 4.14335 4.0227 4.51668 4.14175L6.04751 4.62925C6.2509 4.47854 6.46262 4.33944 6.68168 4.21258C6.89196 4.09399 7.10838 3.98662 7.33001 3.89091L7.67001 2.32258C7.75341 1.94006 8.09184 1.66716 8.48335 1.66675H11.5167C11.9082 1.66716 12.2466 1.94006 12.33 2.32258L12.6733 3.89175C12.9073 3.99468 13.1352 4.11098 13.3558 4.24008C13.5616 4.35909 13.7605 4.48958 13.9517 4.63091L15.4833 4.14341C15.8564 4.02481 16.2618 4.18188 16.4575 4.52091L17.9742 7.14842C18.1679 7.48799 18.1011 7.91634 17.8133 8.18091L16.6258 9.26425C16.6798 9.75499 16.6798 10.2502 16.6258 10.7409L17.8133 11.8242C18.1011 12.0888 18.1679 12.5172 17.9742 12.8567L16.4575 15.4842C16.2618 15.8233 15.8564 15.9804 15.4833 15.8617L13.9517 15.3742C13.7579 15.517 13.5565 15.6491 13.3483 15.7701C13.1299 15.8967 12.9045 16.011 12.6733 16.1126L12.33 17.6784C12.2463 18.0606 11.9079 18.3331 11.5167 18.3334ZM6.35001 13.5242L7.03335 14.0242C7.18739 14.1377 7.34794 14.2421 7.51418 14.3367C7.6706 14.4273 7.83165 14.5097 7.99668 14.5834L8.77418 14.9242L9.15501 16.6667H10.8467L11.2275 14.9234L12.005 14.5826C12.3444 14.4329 12.6666 14.2468 12.9658 14.0276L13.65 13.5276L15.3508 14.0692L16.1967 12.6042L14.8775 11.4017L14.9708 10.5584C15.0118 10.1896 15.0118 9.81728 14.9708 9.44842L14.8775 8.60508L16.1975 7.40008L15.3508 5.93425L13.65 6.47591L12.9658 5.97591C12.6665 5.75567 12.3444 5.56821 12.005 5.41675L11.2275 5.07591L10.8467 3.33341H9.15501L8.77251 5.07675L7.99668 5.41675C7.83152 5.48928 7.67044 5.5708 7.51418 5.66092C7.34896 5.75536 7.18926 5.85913 7.03585 5.97175L6.35168 6.47175L4.65168 5.93008L3.80418 7.40008L5.12335 8.60091L5.03001 9.44508C4.98902 9.81395 4.98902 10.1862 5.03001 10.5551L5.12335 11.3984L3.80418 12.6009L4.65001 14.0659L6.35001 13.5242ZM9.99668 13.3334C8.15573 13.3334 6.66335 11.841 6.66335 10.0001C6.66335 8.15913 8.15573 6.66675 9.99668 6.66675C11.8376 6.66675 13.33 8.15913 13.33 10.0001C13.3277 11.8401 11.8367 13.3311 9.99668 13.3334ZM9.99668 8.33342C9.08618 8.33434 8.34492 9.06579 8.33187 9.9762C8.31883 10.8866 9.03882 11.639 9.94892 11.666C10.859 11.693 11.6224 10.9847 11.6633 10.0751V10.4084V10.0001C11.6633 9.07961 10.9172 8.33342 9.99668 8.33342Z" fill="#333333"/>
</svg>
