<svg width="16" height="16" viewBox="0 0 16 16" fill="none" xmlns="http://www.w3.org/2000/svg">
<path fill-rule="evenodd" clip-rule="evenodd" d="M2.34315 13.6569C5.46734 16.781 10.5327 16.781 13.6569 13.6569C16.781 10.5327 16.781 5.46734 13.6569 2.34315C10.5327 -0.781049 5.46734 -0.781049 2.34315 2.34315C-0.781049 5.46734 -0.781049 10.5327 2.34315 13.6569ZM10.8837 5.22729C11.1315 5.47516 11.1522 5.8642 10.9456 6.1356L10.8837 6.20651L8.98203 8.10814L10.8856 10.0117C11.156 10.2821 11.156 10.7205 10.8856 10.9909C10.6377 11.2387 10.2487 11.2594 9.97729 11.0528L9.90638 10.9908L8.00285 9.08732L6.10095 10.9892C5.83055 11.2596 5.39214 11.2596 5.12173 10.9892C4.87386 10.7413 4.85321 10.3523 5.05976 10.0809L5.12173 10.01L7.02363 8.1081L5.11907 6.20354C4.84867 5.93314 4.84866 5.49474 5.11905 5.22434C5.36691 4.97648 5.75595 4.95584 6.02735 5.1624L6.09825 5.22436L8.00281 7.12892L9.90444 5.22729C10.1748 4.95689 10.6132 4.95689 10.8837 5.22729Z" fill="#EB5757"/>
</svg>
